<?xml version="1.0" encoding="UTF-8"?>
<svg width="350px" height="350px" viewBox="0 0 350 350" version="1.1" xmlns="http://www.w3.org/2000/svg" xmlns:xlink="http://www.w3.org/1999/xlink">
    <!-- Generator: Sketch 48.2 (47327) - http://www.bohemiancoding.com/sketch -->
    <title>Artboard Copy</title>
    <desc>Created with Sketch.</desc>
    <defs></defs>
    <g id="Symbols" stroke="none" stroke-width="1" fill="none" fill-rule="evenodd">
        <g id="Artboard-Copy">
            <g id="Group" transform="translate(7.000000, 8.000000)">
                <circle id="Oval-Copy" stroke="#FFFFFF" cx="168.5" cy="167.5" r="167.5"></circle>
                <ellipse id="Oval" stroke="#FFFFFF" opacity="0.400000006" cx="168.5" cy="167" rx="126.5" ry="127"></ellipse>
                <g id="Group-2" transform="translate(0.000000, 14.000000)" stroke="#FFFFFF">
                    <path d="M7.1025641,10.8591549 L16.5966094,150.18069 C16.7395605,152.278443 17.15756,154.348315 17.8398725,156.337147 L36.2307692,209.943662" id="Path-5" opacity="0.600000024" transform="translate(21.666667, 110.401408) rotate(2.000000) translate(-21.666667, -110.401408) "></path>
                    <rect id="Rectangle" fill="#D8D8D8" transform="translate(41.692308, 218.088028) rotate(-27.000000) translate(-41.692308, -218.088028) " x="32.5897436" y="179.176056" width="18.2051282" height="77.8239437"></rect>
                    <circle id="Oval-Copy-2" fill="#D8D8D8" cx="10" cy="10" r="10"></circle>
                </g>
                <path d="" id="Path-2" stroke="#979797"></path>
            </g>
            <path d="M81.6905289,158.097417 L81.6905289,156.6492 L92.5771218,156.6492 L92.5771218,182.61722 C92.5771218,186.246103 91.5866848,189.192445 89.6057811,191.456335 C87.6248773,193.720225 85.0364243,194.852153 81.8403444,194.852153 L81.3409594,194.852153 C78.6775595,194.852153 76.2305975,193.903331 74,192.005658 L74,189.95818 C76.0974275,192.255362 78.6109735,193.403936 81.5407134,193.403936 C84.4704534,193.403936 86.7676014,192.413499 88.4322263,190.432595 C90.0968513,188.451692 90.9291513,185.913177 90.9291513,182.816974 L90.9291513,158.097417 L81.6905289,158.097417 Z M111.503813,194.802214 L111.004428,194.802214 C107.941518,194.802214 105.353065,193.73687 103.238991,191.60615 C101.124918,189.47543 100.067897,186.795424 100.067897,183.566052 L100.067897,156.6492 L101.715867,156.6492 L101.715867,183.516113 C101.715867,186.345976 102.631397,188.693062 104.462485,190.557442 C106.293572,192.421822 108.557428,193.353998 111.254121,193.353998 C113.950813,193.353998 116.206346,192.430145 118.020787,190.582411 C119.835228,188.734677 120.742435,186.379268 120.742435,183.516113 L120.742435,156.6492 L122.390406,156.6492 L122.390406,183.466175 C122.390406,186.72884 121.333385,189.433815 119.219311,191.581181 C117.105237,193.728547 114.53343,194.802214 111.503813,194.802214 Z M129.881181,156.6492 L131.479213,156.6492 L131.479213,170.382288 L147.309717,156.6492 L149.307257,156.6492 L132.178352,171.580812 L153.701845,194.103075 L151.504551,194.103075 L131.529151,173.278721 L131.529151,194.103075 L129.881181,194.103075 L129.881181,156.6492 Z M158.446002,156.6492 L171.879459,156.6492 L171.879459,158.097417 L160.093973,158.097417 L160.093973,178.472325 L169.931857,178.472325 L169.931857,179.920541 L160.093973,179.920541 L160.093973,192.654859 L171.879459,192.654859 L171.879459,194.103075 L158.446002,194.103075 L158.446002,156.6492 Z M176.873309,156.6492 L178.471341,156.6492 C180.635353,156.6492 182.449767,157.323363 183.914637,158.67171 C185.379507,160.020056 186.111931,161.742917 186.111931,163.840344 C186.111931,165.105459 185.704104,166.395524 184.888438,167.710578 C184.072772,169.025632 183.115627,169.882901 182.016974,170.282411 C184.580497,170.914968 186.711185,172.27994 188.409102,174.377368 C190.10702,176.474795 190.955966,179.113186 190.955966,182.29262 C190.955966,185.472054 189.740808,188.23529 187.310455,190.582411 C184.880103,192.929532 181.933761,194.103075 178.471341,194.103075 L176.873309,194.103075 L176.873309,156.6492 Z M178.471341,171.181304 L178.471341,192.704797 L178.870849,192.704797 C181.734004,192.704797 184.205935,191.639453 186.286716,189.508733 C188.367497,187.378013 189.407872,184.847821 189.407872,181.918081 C189.407872,178.988341 188.37582,176.466472 186.311685,174.352399 C184.24755,172.238325 181.767296,171.181304 178.870849,171.181304 L178.471341,171.181304 Z M178.471341,158.047478 L178.471341,169.832964 L178.870849,169.832964 C180.369011,169.832964 181.692368,169.225385 182.840959,168.010209 C183.989551,166.795033 184.563838,165.396769 184.563838,163.815375 C184.563838,162.233981 183.997874,160.877332 182.865929,159.745387 C181.733984,158.613442 180.402304,158.047478 178.870849,158.047478 L178.471341,158.047478 Z M197.847478,156.6492 L197.847478,192.654859 L209.43321,192.654859 L209.43321,194.103075 L196.199508,194.103075 L196.199508,156.6492 L197.847478,156.6492 Z M231.75572,194.752276 C226.595382,194.752276 222.125931,192.804694 218.347232,188.909471 C214.568534,185.014249 212.679213,180.461568 212.679213,175.251292 C212.679213,170.041015 214.593503,165.529949 218.42214,161.717958 C222.250778,157.905967 226.845074,156 232.205166,156 C237.565258,156 242.142908,157.897644 245.938253,161.692989 C249.733598,165.488334 251.631242,170.007723 251.631242,175.251292 C251.631242,180.49486 249.750244,185.055864 245.988192,188.93444 C242.226139,192.813017 237.731719,194.752276 232.504797,194.752276 L231.75572,194.752276 Z M249.983272,175.376138 C249.983272,170.448848 248.243765,166.229087 244.764699,162.716728 C241.285632,159.204369 237.09084,157.448216 232.180197,157.448216 C227.269553,157.448216 223.066438,159.204369 219.570726,162.716728 C216.075013,166.229087 214.327183,170.440525 214.327183,175.351169 C214.327183,180.261812 216.075013,184.481573 219.570726,188.010578 C223.066438,191.539583 227.26123,193.304059 232.155228,193.304059 C237.049225,193.304059 241.244017,191.539583 244.739729,188.010578 C248.235442,184.481573 249.983272,180.270135 249.983272,175.376138 Z M274.802706,156.6492 L266.762608,173.128905 L277,194.103075 L275.152276,194.103075 L265.813776,174.876753 L256.425338,194.103075 L254.877245,194.103075 L265.01476,173.178844 L256.774908,156.6492 L258.672571,156.6492 L265.963592,171.480935 L273.204674,156.6492 L274.802706,156.6492 Z" id="JUKEBLOX-Copy-2" stroke="#FFFFFF" stroke-width="2" fill="#FFFFFF"></path>
        </g>
    </g>
</svg>