<?xml version="1.0" encoding="UTF-8"?>
<svg width="180px" height="41px" viewBox="0 0 180 41" version="1.1" xmlns="http://www.w3.org/2000/svg" xmlns:xlink="http://www.w3.org/1999/xlink">
    <!-- Generator: Sketch 48.2 (47327) - http://www.bohemiancoding.com/sketch -->
    <title>elements/logo-nav__b copy 5</title>
    <desc>Created with Sketch.</desc>
    <defs>
        <path d="M55.62,9.37 L55.62,8.5 L62.16,8.5 L62.16,24.1 C62.16,26.2800109 61.5650059,28.0499932 60.375,29.41 C59.184994,30.7700068 57.6300096,31.45 55.71,31.45 L55.41,31.45 C53.809992,31.45 52.3400067,30.8800057 51,29.74 L51,28.51 C52.2600063,29.8900069 53.7699912,30.58 55.53,30.58 C57.2900088,30.58 58.669995,29.9850059 59.67,28.795 C60.670005,27.604994 61.17,26.0800093 61.17,24.22 L61.17,9.37 L55.62,9.37 Z M73.53,31.42 L73.23,31.42 C71.3899908,31.42 69.8350063,30.7800064 68.565,29.5 C67.2949936,28.2199936 66.66,26.6100097 66.66,24.67 L66.66,8.5 L67.65,8.5 L67.65,24.64 C67.65,26.3400085 68.1999945,27.7499944 69.3,28.87 C70.4000055,29.9900056 71.7599919,30.55 73.38,30.55 C75.0000081,30.55 76.3549945,29.9950056 77.445,28.885 C78.5350054,27.7749945 79.08,26.3600086 79.08,24.64 L79.08,8.5 L80.07,8.5 L80.07,24.61 C80.07,26.5700098 79.4350063,28.1949935 78.165,29.485 C76.8949936,30.7750064 75.3500091,31.42 73.53,31.42 Z M84.57,8.5 L85.53,8.5 L85.53,16.75 L95.04,8.5 L96.24,8.5 L85.95,17.47 L98.88,31 L97.56,31 L85.56,18.49 L85.56,31 L84.57,31 L84.57,8.5 Z M101.73,8.5 L109.8,8.5 L109.8,9.37 L102.72,9.37 L102.72,21.61 L108.63,21.61 L108.63,22.48 L102.72,22.48 L102.72,30.13 L109.8,30.13 L109.8,31 L101.73,31 L101.73,8.5 Z M112.8,8.5 L113.76,8.5 C115.060006,8.5 116.149996,8.90499595 117.03,9.715 C117.910004,10.525004 118.35,11.5599937 118.35,12.82 C118.35,13.5800038 118.105002,14.3549961 117.615,15.145 C117.124998,15.9350039 116.550003,16.4499988 115.89,16.69 C117.430008,17.0700019 118.709995,17.8899937 119.73,19.15 C120.750005,20.4100063 121.26,21.9949905 121.26,23.905 C121.26,25.8150095 120.530007,27.474993 119.07,28.885 C117.609993,30.295007 115.84001,31 113.76,31 L112.8,31 L112.8,8.5 Z M113.76,17.23 L113.76,30.16 L114,30.16 C115.720009,30.16 117.204994,29.5200064 118.455,28.24 C119.705006,26.9599936 120.33,25.4400088 120.33,23.68 C120.33,21.9199912 119.710006,20.4050064 118.47,19.135 C117.229994,17.8649937 115.740009,17.23 114,17.23 L113.76,17.23 Z M113.76,9.34 L113.76,16.42 L114,16.42 C114.900004,16.42 115.694997,16.0550037 116.385,15.325 C117.075003,14.5949964 117.42,13.7550048 117.42,12.805 C117.42,11.8549952 117.080003,11.0400034 116.4,10.36 C115.719997,9.6799966 114.920005,9.34 114,9.34 L113.76,9.34 Z M125.4,8.5 L125.4,30.13 L132.36,30.13 L132.36,31 L124.41,31 L124.41,8.5 L125.4,8.5 Z M145.77,31.39 C142.669984,31.39 139.985011,30.2200117 137.715,27.88 C135.444989,25.5399883 134.31,22.8050157 134.31,19.675 C134.31,16.5449844 135.459988,13.8350115 137.76,11.545 C140.060011,9.25498855 142.819984,8.11 146.04,8.11 C149.260016,8.11 152.009989,9.2499886 154.29,11.53 C156.570011,13.8100114 157.71,16.5249842 157.71,19.675 C157.71,22.8250157 156.580011,25.5649883 154.32,27.895 C152.059989,30.2250116 149.360016,31.39 146.22,31.39 L145.77,31.39 Z M156.72,19.75 C156.72,16.7899852 155.67501,14.2550106 153.585,12.145 C151.49499,10.0349894 148.975015,8.98 146.025,8.98 C143.074985,8.98 140.55001,10.0349894 138.45,12.145 C136.349989,14.2550106 135.3,16.7849853 135.3,19.735 C135.3,22.6850148 136.349989,25.2199894 138.45,27.34 C140.55001,29.4600106 143.069985,30.52 146.01,30.52 C148.950015,30.52 151.469989,29.4600106 153.57,27.34 C155.67001,25.2199894 156.72,22.6900147 156.72,19.75 Z M171.63,8.5 L166.8,18.4 L172.95,31 L171.84,31 L166.23,19.45 L160.59,31 L159.66,31 L165.75,18.43 L160.8,8.5 L161.94,8.5 L166.32,17.41 L170.67,8.5 L171.63,8.5 Z" id="path-1"></path>
        <filter x="-6.2%" y="-23.6%" width="112.3%" height="164.3%" filterUnits="objectBoundingBox" id="filter-2">
            <feMorphology radius="0.5" operator="dilate" in="SourceAlpha" result="shadowSpreadOuter1"></feMorphology>
            <feOffset dx="0" dy="2" in="shadowSpreadOuter1" result="shadowOffsetOuter1"></feOffset>
            <feGaussianBlur stdDeviation="2" in="shadowOffsetOuter1" result="shadowBlurOuter1"></feGaussianBlur>
            <feComposite in="shadowBlurOuter1" in2="SourceAlpha" operator="out" result="shadowBlurOuter1"></feComposite>
            <feColorMatrix values="0 0 0 0 0   0 0 0 0 0   0 0 0 0 0  0 0 0 0.5 0" type="matrix" in="shadowBlurOuter1"></feColorMatrix>
        </filter>
    </defs>
    <g id="Symbols" stroke="none" stroke-width="1" fill="none" fill-rule="evenodd">
        <g id="elements/logo-nav__b-copy-5">
            <g id="Group" transform="translate(3.000000, 3.000000)">
                <circle id="Oval-Copy" stroke="#FFFFFF" cx="18" cy="17.5" r="17.5"></circle>
                <circle id="Oval" stroke="#FFFFFF" cx="18" cy="17.5" r="10"></circle>
                <path d="M2.26553105,2 L3.25695988,16.900567 C3.26265038,16.9860917 3.27931304,17.0705298 3.3065381,17.151805 L5.26553105,23" id="Path-5" stroke="#FFFFFF" transform="translate(3.765531, 12.500000) rotate(2.000000) translate(-3.765531, -12.500000) "></path>
                <rect id="Rectangle" stroke="#FFFFFF" fill="#D8D8D8" transform="translate(6.002412, 23.925699) rotate(-27.000000) translate(-6.002412, -23.925699) " x="5.00241247" y="19.8255997" width="2" height="8.2001978"></rect>
                <circle id="Oval-Copy-2" stroke="#FFFFFF" fill="#D8D8D8" cx="2.75" cy="2.5" r="1.5"></circle>
                <path d="" id="Path-2" stroke="#979797"></path>
            </g>
            <g id="JUKEBLOX-Copy-2">
                <use fill="black" fill-opacity="1" filter="url(#filter-2)" xlink:href="#path-1"></use>
                <use fill="#FFFFFF" fill-rule="evenodd" xlink:href="#path-1"></use>
            </g>
        </g>
    </g>
</svg>