<?xml version="1.0" encoding="UTF-8"?>
<svg width="180px" height="41px" viewBox="0 0 180 41" version="1.1" xmlns="http://www.w3.org/2000/svg" xmlns:xlink="http://www.w3.org/1999/xlink">
    <!-- Generator: Sketch 48.2 (47327) - http://www.bohemiancoding.com/sketch -->
    <title>elements/logo-nav__b</title>
    <desc>Created with Sketch.</desc>
    <defs>
        <path d="M56.645,9.37 L56.645,8.5 L63.185,8.5 L63.185,24.1 C63.185,26.2800109 62.590006,28.0499932 61.4,29.41 C60.2099941,30.7700068 58.6550096,31.45 56.735,31.45 L56.435,31.45 C54.834992,31.45 53.3650067,30.8800057 52.025,29.74 L52.025,28.51 C53.2850063,29.8900069 54.7949912,30.58 56.555,30.58 C58.3150088,30.58 59.694995,29.9850059 60.695,28.795 C61.695005,27.604994 62.195,26.0800093 62.195,24.22 L62.195,9.37 L56.645,9.37 Z M74.555,31.42 L74.255,31.42 C72.4149908,31.42 70.8600064,30.7800064 69.59,29.5 C68.3199937,28.2199936 67.685,26.6100097 67.685,24.67 L67.685,8.5 L68.675,8.5 L68.675,24.64 C68.675,26.3400085 69.2249945,27.7499944 70.325,28.87 C71.4250055,29.9900056 72.7849919,30.55 74.405,30.55 C76.0250081,30.55 77.3799946,29.9950056 78.47,28.885 C79.5600055,27.7749945 80.105,26.3600086 80.105,24.64 L80.105,8.5 L81.095,8.5 L81.095,24.61 C81.095,26.5700098 80.4600064,28.1949935 79.19,29.485 C77.9199937,30.7750064 76.3750091,31.42 74.555,31.42 Z M85.595,8.5 L86.555,8.5 L86.555,16.75 L96.065,8.5 L97.265,8.5 L86.975,17.47 L99.905,31 L98.585,31 L86.585,18.49 L86.585,31 L85.595,31 L85.595,8.5 Z M102.755,8.5 L110.825,8.5 L110.825,9.37 L103.745,9.37 L103.745,21.61 L109.655,21.61 L109.655,22.48 L103.745,22.48 L103.745,30.13 L110.825,30.13 L110.825,31 L102.755,31 L102.755,8.5 Z M113.825,8.5 L114.785,8.5 C116.085007,8.5 117.174996,8.90499595 118.055,9.715 C118.935004,10.525004 119.375,11.5599937 119.375,12.82 C119.375,13.5800038 119.130002,14.3549961 118.64,15.145 C118.149998,15.9350039 117.575003,16.4499988 116.915,16.69 C118.455008,17.0700019 119.734995,17.8899937 120.755,19.15 C121.775005,20.4100063 122.285,21.9949905 122.285,23.905 C122.285,25.8150095 121.555007,27.474993 120.095,28.885 C118.634993,30.295007 116.86501,31 114.785,31 L113.825,31 L113.825,8.5 Z M114.785,17.23 L114.785,30.16 L115.025,30.16 C116.745009,30.16 118.229994,29.5200064 119.48,28.24 C120.730006,26.9599936 121.355,25.4400088 121.355,23.68 C121.355,21.9199912 120.735006,20.4050064 119.495,19.135 C118.254994,17.8649937 116.765009,17.23 115.025,17.23 L114.785,17.23 Z M114.785,9.34 L114.785,16.42 L115.025,16.42 C115.925005,16.42 116.719997,16.0550037 117.41,15.325 C118.100003,14.5949964 118.445,13.7550048 118.445,12.805 C118.445,11.8549952 118.105003,11.0400034 117.425,10.36 C116.744997,9.6799966 115.945005,9.34 115.025,9.34 L114.785,9.34 Z M126.425,8.5 L126.425,30.13 L133.385,30.13 L133.385,31 L125.435,31 L125.435,8.5 L126.425,8.5 Z M146.795,31.39 C143.694985,31.39 141.010011,30.2200117 138.74,27.88 C136.469989,25.5399883 135.335,22.8050157 135.335,19.675 C135.335,16.5449844 136.484988,13.8350115 138.785,11.545 C141.085012,9.25498855 143.844984,8.11 147.065,8.11 C150.285016,8.11 153.034989,9.2499886 155.315,11.53 C157.595011,13.8100114 158.735,16.5249842 158.735,19.675 C158.735,22.8250157 157.605011,25.5649883 155.345,27.895 C153.084989,30.2250116 150.385016,31.39 147.245,31.39 L146.795,31.39 Z M157.745,19.75 C157.745,16.7899852 156.70001,14.2550106 154.61,12.145 C152.51999,10.0349894 150.000015,8.98 147.05,8.98 C144.099985,8.98 141.57501,10.0349894 139.475,12.145 C137.374989,14.2550106 136.325,16.7849853 136.325,19.735 C136.325,22.6850148 137.374989,25.2199894 139.475,27.34 C141.57501,29.4600106 144.094985,30.52 147.035,30.52 C149.975015,30.52 152.494989,29.4600106 154.595,27.34 C156.69501,25.2199894 157.745,22.6900147 157.745,19.75 Z M172.655,8.5 L167.825,18.4 L173.975,31 L172.865,31 L167.255,19.45 L161.615,31 L160.685,31 L166.775,18.43 L161.825,8.5 L162.965,8.5 L167.345,17.41 L171.695,8.5 L172.655,8.5 Z" id="path-1"></path>
        <filter x="-6.2%" y="-23.6%" width="112.3%" height="164.3%" filterUnits="objectBoundingBox" id="filter-2">
            <feMorphology radius="0.5" operator="dilate" in="SourceAlpha" result="shadowSpreadOuter1"></feMorphology>
            <feOffset dx="0" dy="2" in="shadowSpreadOuter1" result="shadowOffsetOuter1"></feOffset>
            <feGaussianBlur stdDeviation="2" in="shadowOffsetOuter1" result="shadowBlurOuter1"></feGaussianBlur>
            <feComposite in="shadowBlurOuter1" in2="SourceAlpha" operator="out" result="shadowBlurOuter1"></feComposite>
            <feColorMatrix values="0 0 0 0 0   0 0 0 0 0   0 0 0 0 0  0 0 0 0.5 0" type="matrix" in="shadowBlurOuter1"></feColorMatrix>
        </filter>
    </defs>
    <g id="Symbols" stroke="none" stroke-width="1" fill="none" fill-rule="evenodd">
        <g id="elements/logo-nav__b">
            <g id="Group">
                <circle id="Oval-Copy" stroke="#FFFFFF" cx="20.5" cy="20.5" r="20.5"></circle>
                <circle id="Oval" stroke="#FFFFFF" cx="20.5" cy="20.5" r="12.5"></circle>
                <circle id="Oval-Copy-2" stroke="#FFFFFF" fill="#D8D8D8" cx="11.5" cy="29.5" r="2.5"></circle>
                <path d="" id="Path-2" stroke="#979797"></path>
            </g>
            <g id="JUKEBLOX-Copy-2">
                <use fill="black" fill-opacity="1" filter="url(#filter-2)" xlink:href="#path-1"></use>
                <use fill="#FFFFFF" fill-rule="evenodd" xlink:href="#path-1"></use>
            </g>
        </g>
    </g>
</svg>