<?xml version="1.0" encoding="UTF-8"?>
<svg width="215px" height="215px" viewBox="0 0 215 215" version="1.1" xmlns="http://www.w3.org/2000/svg" xmlns:xlink="http://www.w3.org/1999/xlink">
    <!-- Generator: Sketch 48.2 (47327) - http://www.bohemiancoding.com/sketch -->
    <title>Group</title>
    <desc>Created with Sketch.</desc>
    <defs>
        <path d="M147.498043,107.518154 L147.498043,62.301177 C147.498043,58.6211805 144.506861,55.6379539 140.817051,55.6379539 C139.92953,55.6379539 139.050905,55.8143173 138.232486,56.1567446 L89.1272727,76.7024077 L89.1272727,107.518154 L89.1272727,136.427873 L138.232486,156.973536 C139.050905,157.315964 139.92953,157.492327 140.817051,157.492327 C144.506861,157.492327 147.498043,154.509101 147.498043,150.829104 L147.498043,107.518154 Z M107.5,215 C48.1293894,215 0,166.870611 0,107.5 C0,48.1293894 48.1293894,0 107.5,0 C166.870611,0 215,48.1293894 215,107.5 C215,166.870611 166.870611,215 107.5,215 Z M61.4132231,76.6270661 C60.8609384,76.6270661 60.4132231,77.0747814 60.4132231,77.6270661 L60.4132231,135.596074 C60.4132231,136.148359 60.8609384,136.596074 61.4132231,136.596074 L76.1157025,136.596074 C76.6679872,136.596074 77.1157025,136.148359 77.1157025,135.596074 L77.1157025,77.6270661 C77.1157025,77.0747814 76.6679872,76.6270661 76.1157025,76.6270661 L61.4132231,76.6270661 Z" id="path-1"></path>
    </defs>
    <g id="Dapp-main" stroke="none" stroke-width="1" fill="none" fill-rule="evenodd" transform="translate(-488.000000, -288.000000)">
        <g id="Group" transform="translate(488.000000, 288.000000)">
            <g id="Group-4">
                <g id="Group-5">
                    <g id="Combined-Shape">
                        <use fill-opacity="0.4" fill="#FFFFFF" fill-rule="evenodd" xlink:href="#path-1"></use>
                        <path stroke="#FFFFFF" stroke-width="3" d="M148.998043,62.301177 L148.998043,150.829104 C148.998043,155.338423 145.334395,158.992327 140.817051,158.992327 C139.730766,158.992327 138.655337,158.77646 137.653519,158.357298 L87.6272727,137.426274 L87.6272727,75.7040067 L137.653519,54.7729827 C138.655337,54.353821 139.730766,54.1379539 140.817051,54.1379539 C145.334395,54.1379539 148.998043,57.7918578 148.998043,62.301177 Z M107.5,213.5 C166.042183,213.5 213.5,166.042183 213.5,107.5 C213.5,48.9578165 166.042183,1.5 107.5,1.5 C48.9578165,1.5 1.5,48.9578165 1.5,107.5 C1.5,166.042183 48.9578165,213.5 107.5,213.5 Z M61.4132231,75.1270661 L76.1157025,75.1270661 C77.4964144,75.1270661 78.6157025,76.2463542 78.6157025,77.6270661 L78.6157025,135.596074 C78.6157025,136.976786 77.4964144,138.096074 76.1157025,138.096074 L61.4132231,138.096074 C60.0325113,138.096074 58.9132231,136.976786 58.9132231,135.596074 L58.9132231,77.6270661 C58.9132231,76.2463542 60.0325113,75.1270661 61.4132231,75.1270661 Z"></path>
                    </g>
                </g>
            </g>
        </g>
    </g>
</svg>