<?xml version="1.0" encoding="UTF-8"?>
<svg width="150px" height="150px" viewBox="0 0 150 150" version="1.1" xmlns="http://www.w3.org/2000/svg" xmlns:xlink="http://www.w3.org/1999/xlink">
    <!-- Generator: Sketch 48.2 (47327) - http://www.bohemiancoding.com/sketch -->
    <title>Group</title>
    <desc>Created with Sketch.</desc>
    <defs>
        <path d="M83.0105263,60.5102167 L83.0105263,35.0625229 C83.0105263,32.9914551 81.327117,31.3125229 79.2505263,31.3125229 C78.7510381,31.3125229 78.2565558,31.4117786 77.7959571,31.6044935 L50.16,43.1674015 L50.16,60.5102167 L50.16,76.780338 L77.7959571,88.3432461 C78.2565558,88.535961 78.7510381,88.6352167 79.2505263,88.6352167 C81.327117,88.6352167 83.0105263,86.9562845 83.0105263,84.8852167 L83.0105263,60.5102167 Z M60.5,121 C27.0867726,121 0,93.9132274 0,60.5 C0,27.0867726 27.0867726,0 60.5,0 C93.9132274,0 121,27.0867726 121,60.5 C121,93.9132274 93.9132274,121 60.5,121 Z M35,43.125 C34.4477153,43.125 34,43.5727153 34,44.125 L34,75.875 C34,76.4272847 34.4477153,76.875 35,76.875 L42.4,76.875 C42.9522847,76.875 43.4,76.4272847 43.4,75.875 L43.4,44.125 C43.4,43.5727153 42.9522847,43.125 42.4,43.125 L35,43.125 Z" id="path-1"></path>
    </defs>
    <g id="Dapp-main" stroke="none" stroke-width="1" fill="none" fill-rule="evenodd" transform="translate(-540.000000, -448.000000)">
        <g id="Group" transform="translate(540.000000, 448.000000)">
            <g id="Group-4">
                <g id="Group-5">
                    <g id="Combined-Shape">
                        <use fill-opacity="0.25" fill="#FFFFFF" fill-rule="evenodd" xlink:href="#path-1"></use>
                        <path stroke="#FFFFFF" stroke-width="2" d="M84.0105263,35.0625229 L84.0105263,84.8852167 C84.0105263,87.5091663 81.8788064,89.6352167 79.2505263,89.6352167 C78.6185285,89.6352167 77.9928438,89.5096252 77.409979,89.265754 L49.16,77.4459387 L49.16,42.5018009 L77.409979,30.6819855 C77.9928438,30.4381144 78.6185285,30.3125229 79.2505263,30.3125229 C81.8788064,30.3125229 84.0105263,32.4385733 84.0105263,35.0625229 Z M60.5,120 C93.3609426,120 120,93.3609426 120,60.5 C120,27.6390574 93.3609426,1 60.5,1 C27.6390574,1 1,27.6390574 1,60.5 C1,93.3609426 27.6390574,120 60.5,120 Z M35,42.125 L42.4,42.125 C43.5045695,42.125 44.4,43.0204305 44.4,44.125 L44.4,75.875 C44.4,76.9795695 43.5045695,77.875 42.4,77.875 L35,77.875 C33.8954305,77.875 33,76.9795695 33,75.875 L33,44.125 C33,43.0204305 33.8954305,42.125 35,42.125 Z"></path>
                    </g>
                </g>
            </g>
        </g>
    </g>
</svg>
