<?xml version="1.0" encoding="UTF-8"?>
<svg width="250px" height="250px" viewBox="0 0 250 250" version="1.1" xmlns="http://www.w3.org/2000/svg" xmlns:xlink="http://www.w3.org/1999/xlink">
    <!-- Generator: Sketch 48.2 (47327) - http://www.bohemiancoding.com/sketch -->
    <title>Group</title>
    <desc>Created with Sketch.</desc>
    <defs>
        <path d="M171.509352,125.021109 L171.509352,72.4432291 C171.509352,68.1641634 168.031233,64.6952952 163.740757,64.6952952 C162.708756,64.6952952 161.687099,64.900369 160.735448,65.2985402 L103.636364,89.1888461 L103.636364,125.021109 L103.636364,158.637062 L160.735448,182.527368 C161.687099,182.925539 162.708756,183.130613 163.740757,183.130613 C168.031233,183.130613 171.509352,179.661745 171.509352,175.382679 L171.509352,125.021109 Z M125,250 C55.9644063,250 0,194.035594 0,125 C0,55.9644063 55.9644063,0 125,0 C194.035594,0 250,55.9644063 250,125 C250,194.035594 194.035594,250 125,250 Z M71.2479339,89.1012397 C70.6956491,89.1012397 70.2479339,89.5489549 70.2479339,90.1012397 L70.2479339,157.832645 C70.2479339,158.384929 70.6956491,158.832645 71.2479339,158.832645 L88.6694215,158.832645 C89.2217062,158.832645 89.6694215,158.384929 89.6694215,157.832645 L89.6694215,90.1012397 C89.6694215,89.5489549 89.2217062,89.1012397 88.6694215,89.1012397 L71.2479339,89.1012397 Z" id="path-1"></path>
    </defs>
    <g id="Dapp-main" stroke="none" stroke-width="1" fill="none" fill-rule="evenodd" transform="translate(-495.000000, -295.000000)">
        <g id="Group" transform="translate(495.000000, 295.000000)">
            <g id="Group-4">
                <g id="Group-5">
                    <g id="Combined-Shape">
                        <use fill-opacity="0.4" fill="#FFFFFF" fill-rule="evenodd" xlink:href="#path-1"></use>
                        <path stroke="#FFFFFF" stroke-width="3" d="M173.009352,72.4432291 L173.009352,175.382679 C173.009352,180.491067 168.858768,184.630613 163.740757,184.630613 C162.509992,184.630613 161.291531,184.386036 160.156481,183.91113 L102.136364,159.635463 L102.136364,88.1904451 L160.156481,63.9147783 C161.291531,63.4398727 162.509992,63.1952952 163.740757,63.1952952 C168.858768,63.1952952 173.009352,67.3348407 173.009352,72.4432291 Z M125,248.5 C193.207167,248.5 248.5,193.207167 248.5,125 C248.5,56.7928334 193.207167,1.5 125,1.5 C56.7928334,1.5 1.5,56.7928334 1.5,125 C1.5,193.207167 56.7928334,248.5 125,248.5 Z M71.2479339,87.6012397 L88.6694215,87.6012397 C90.0501334,87.6012397 91.1694215,88.7205278 91.1694215,90.1012397 L91.1694215,157.832645 C91.1694215,159.213357 90.0501334,160.332645 88.6694215,160.332645 L71.2479339,160.332645 C69.867222,160.332645 68.7479339,159.213357 68.7479339,157.832645 L68.7479339,90.1012397 C68.7479339,88.7205278 69.867222,87.6012397 71.2479339,87.6012397 Z"></path>
                    </g>
                </g>
            </g>
        </g>
    </g>
</svg>